<?xml version="1.0" encoding="UTF-8"?>
<svg width="163px" height="141px" viewBox="0 0 163 141" version="1.1" xmlns="http://www.w3.org/2000/svg" xmlns:xlink="http://www.w3.org/1999/xlink">
    <!-- Generator: Sketch 41.1 (35376) - http://www.bohemiancoding.com/sketch -->
    <title>hero-logo</title>
    <desc>Created with Sketch.</desc>
    <defs></defs>
    <g id="Page-1" stroke="none" stroke-width="1" fill="none" fill-rule="evenodd">
        <g id="180---iPhone-6-Plus" transform="translate(-9.000000, -19.000000)" fill="#FFFFFF">
            <path d="M169.953676,87.3244051 L137.609654,61.1781692 C135.482539,59.1050421 132.032726,59.1050421 129.91101,61.1781692 C127.783895,63.2512963 127.783895,66.6093303 129.91101,68.6878562 L157.936017,91.3464876 L129.91101,114.010518 C127.783895,116.078246 127.783895,119.441679 129.91101,121.514806 C132.032726,123.593332 135.482539,123.593332 137.609654,121.514806 L169.953676,95.3685702 C171.087418,94.2618226 171.567908,92.7933576 171.492325,91.3464876 C171.567908,89.8996177 171.087418,88.4257539 169.953676,87.3244051 L169.953676,87.3244051 Z M51.0889899,114.005119 L23.0639825,91.3464876 L51.0889899,68.6878562 C53.2161047,66.6093303 53.2161047,63.2458976 51.0889899,61.1781692 C48.9672738,59.0996433 45.5174608,59.0996433 43.390346,61.1781692 L11.0463238,87.3244051 C9.91258244,88.4257539 9.43209204,89.8996177 9.5076748,91.3464876 C9.43209204,92.7933576 9.91258244,94.2618226 11.0463238,95.3685702 L43.390346,121.514806 C45.5174608,123.593332 48.9672738,123.593332 51.0889899,121.514806 C53.2161047,119.441679 53.2161047,116.078246 51.0889899,114.005119 L51.0889899,114.005119 Z M128.075429,20.3364854 C125.489419,18.8734192 122.190771,19.7426209 120.700711,22.2692446 L53.2161047,152.309382 C51.7206458,154.841404 52.3415042,158.712321 55.1920539,159.538333 C58.6742596,160.547902 61.0767116,160.137596 62.5667717,157.605574 L130.051378,27.5600377 C131.541438,25.0280153 130.65604,21.7995517 128.075429,20.3364854 L128.075429,20.3364854 Z" id="hero-logo"></path>
        </g>
    </g>
</svg>